<svg id="visual" viewBox="0 0 960 540" width="960" height="540" xmlns="http://www.w3.org/2000/svg" xmlns:xlink="http://www.w3.org/1999/xlink" version="1.1"><rect x="0" y="0" width="960" height="540" fill="#001220"></rect><path d="M0 166L22.8 173.5C45.7 181 91.3 196 137 198.5C182.7 201 228.3 191 274 180.2C319.7 169.3 365.3 157.7 411.2 151C457 144.3 503 142.7 548.8 150.3C594.7 158 640.3 175 686 184.2C731.7 193.3 777.3 194.7 823 187.2C868.7 179.7 914.3 163.3 937.2 155.2L960 147L960 0L937.2 0C914.3 0 868.7 0 823 0C777.3 0 731.7 0 686 0C640.3 0 594.7 0 548.8 0C503 0 457 0 411.2 0C365.3 0 319.7 0 274 0C228.3 0 182.7 0 137 0C91.3 0 45.7 0 22.8 0L0 0Z" fill="#fa7268"></path><path d="M0 172L22.8 162C45.7 152 91.3 132 137 125.7C182.7 119.3 228.3 126.7 274 127C319.7 127.3 365.3 120.7 411.2 127.7C457 134.7 503 155.3 548.8 166.8C594.7 178.3 640.3 180.7 686 169.3C731.7 158 777.3 133 823 132C868.7 131 914.3 154 937.2 165.5L960 177L960 0L937.2 0C914.3 0 868.7 0 823 0C777.3 0 731.7 0 686 0C640.3 0 594.7 0 548.8 0C503 0 457 0 411.2 0C365.3 0 319.7 0 274 0C228.3 0 182.7 0 137 0C91.3 0 45.7 0 22.8 0L0 0Z" fill="#ef5f67"></path><path d="M0 95L22.8 96C45.7 97 91.3 99 137 104.8C182.7 110.7 228.3 120.3 274 123.3C319.7 126.3 365.3 122.7 411.2 122C457 121.3 503 123.7 548.8 120.5C594.7 117.3 640.3 108.7 686 105.5C731.7 102.3 777.3 104.7 823 106.8C868.7 109 914.3 111 937.2 112L960 113L960 0L937.2 0C914.3 0 868.7 0 823 0C777.3 0 731.7 0 686 0C640.3 0 594.7 0 548.8 0C503 0 457 0 411.2 0C365.3 0 319.7 0 274 0C228.3 0 182.7 0 137 0C91.3 0 45.7 0 22.8 0L0 0Z" fill="#e34c67"></path><path d="M0 86L22.8 82.2C45.7 78.3 91.3 70.7 137 70.5C182.7 70.3 228.3 77.7 274 77.7C319.7 77.7 365.3 70.3 411.2 67.2C457 64 503 65 548.8 70.5C594.7 76 640.3 86 686 91C731.7 96 777.3 96 823 90.2C868.7 84.3 914.3 72.7 937.2 66.8L960 61L960 0L937.2 0C914.3 0 868.7 0 823 0C777.3 0 731.7 0 686 0C640.3 0 594.7 0 548.8 0C503 0 457 0 411.2 0C365.3 0 319.7 0 274 0C228.3 0 182.7 0 137 0C91.3 0 45.7 0 22.8 0L0 0Z" fill="#d53867"></path><path d="M0 40L22.8 42.2C45.7 44.3 91.3 48.7 137 52.7C182.7 56.7 228.3 60.3 274 56C319.7 51.7 365.3 39.3 411.2 35C457 30.7 503 34.3 548.8 33.7C594.7 33 640.3 28 686 30.8C731.7 33.7 777.3 44.3 823 47.8C868.7 51.3 914.3 47.7 937.2 45.8L960 44L960 0L937.2 0C914.3 0 868.7 0 823 0C777.3 0 731.7 0 686 0C640.3 0 594.7 0 548.8 0C503 0 457 0 411.2 0C365.3 0 319.7 0 274 0C228.3 0 182.7 0 137 0C91.3 0 45.7 0 22.8 0L0 0Z" fill="#c62368"></path></svg>